<?xml version="1.0" standalone="no"?><!DOCTYPE svg PUBLIC "-//W3C//DTD SVG 1.1//EN" "http://www.w3.org/Graphics/SVG/1.1/DTD/svg11.dtd"><svg t="1682265763666" class="icon" viewBox="0 0 1024 1024" version="1.1" xmlns="http://www.w3.org/2000/svg" p-id="5959" xmlns:xlink="http://www.w3.org/1999/xlink" width="200" height="200"><path d="M946.05 255.99c-39.46-68.36-131.96-95.14-247.9-82.63C651 66.71 581.56 0 502.65 0c-78.83 0-148.2 66.57-195.34 173.02-4.84-0.54-9.82-1.36-14.6-1.77-113.4-9.48-196.38 20.5-233.47 84.74-39.45 68.35-16.39 161.84 52.4 256-68.8 94.16-91.87 187.66-52.4 256.01 32.55 56.4 100.43 86.49 193.33 86.49 12.89 0 26.29-0.59 40.14-1.75 4.78-0.41 9.75-1.23 14.59-1.77C354.45 957.43 423.82 1024 502.65 1024c78.92 0 148.37-66.73 195.51-173.4 18.23 1.96 36.08 3.31 53.03 3.31 90.82 0 161.6-28.31 194.85-85.9 39.46-68.36 16.4-161.85-52.4-256.01 68.81-94.16 91.87-187.66 52.41-256.01zM751.76 240c66.47 0 114.69 18.11 133.69 50.98 21.57 37.36 7.42 97.97-37.99 165.26-27.77-30.02-59.81-59.58-95.92-87.93-6.5-45.45-16.08-87.98-28.2-127.04 9.72-0.68 19.36-1.27 28.42-1.27zM597.18 675.77c-31.32 18.09-63 33.88-94.55 47.75-30.9-13.55-62.49-29.24-94.55-47.75-32.05-18.51-61.43-38.02-88.62-58-3.71-33.54-5.92-68.74-5.92-105.76 0-37.02 2.21-72.23 5.92-105.77 27.18-19.98 56.56-39.49 88.62-57.99 31.96-18.45 63.52-34.32 94.32-47.85 31.62 13.89 63.37 29.72 94.77 47.85 32.06 18.51 61.45 38.02 88.64 58.01 3.71 33.53 5.91 68.74 5.91 105.75 0 37.01-2.2 72.21-5.91 105.74-27.18 19.99-56.57 39.51-88.63 58.02z m72.47 37.7c-4.85 20.89-10.3 40.76-16.42 59.33-19.12-3.98-39.02-9.18-59.5-15.41 12.86-6.73 25.7-13.67 38.45-21.03 12.85-7.42 25.21-15.12 37.47-22.89z m-334 0.02c12.24 7.76 24.6 15.46 37.45 22.88 12.96 7.48 25.92 14.3 38.88 21.07-20.29 6.23-40.27 11.48-59.83 15.59-6.16-18.64-11.63-38.58-16.5-59.54zM244.66 555.9c-15.66-14.65-30.15-29.3-43.17-43.9 13.02-14.59 27.51-29.25 43.18-43.89-0.6 14.49-1.09 29.06-1.09 43.9s0.49 29.4 1.08 43.89z m107.48-304.91c19.52 4.1 39.46 9.34 59.71 15.55-12.91 6.76-25.83 13.65-38.75 21.11-12.85 7.42-25.21 15.12-37.45 22.88 4.86-20.96 10.34-40.9 16.49-59.54z m241.31 15.48c20.7-6.31 40.53-11.1 59.83-15.11 6.1 18.53 11.53 38.36 16.37 59.18-12.25-7.76-24.62-15.47-37.48-22.89-12.84-7.41-25.77-14.4-38.72-21.18z m167.18 201.65c15.66 14.64 30.14 29.29 43.16 43.88-13.02 14.59-27.5 29.24-43.16 43.88 0.6-14.48 1.09-29.04 1.09-43.87 0-14.84-0.49-29.4-1.09-43.89zM502.65 69.98c43.14 0 88.55 42.55 124.12 115.51-39.82 9.02-81.35 21.96-123.88 39.01-42.08-16.93-83.8-30.08-124.18-39.35 35.53-72.75 80.87-115.17 123.94-115.17z m-382.81 221c22-38.1 81.13-56.3 162.25-50.21-12.19 39.2-21.82 81.89-28.35 127.54-36.11 28.35-68.15 57.91-95.92 87.94-45.41-67.29-59.55-127.91-37.98-165.27z m0 442.04c-21.57-37.36-7.43-97.98 37.98-165.26 27.77 30.03 59.81 59.6 95.92 87.95 6.53 45.64 16.16 88.34 28.35 127.54-81.14 5.96-140.25-12.13-162.25-50.23z m382.81 221c-43.07 0-88.41-42.43-123.95-115.17 40.45-9.28 82.24-22.47 124.39-39.43 42.4 16.98 83.92 30.21 123.62 39.21-35.56 72.88-80.95 115.39-124.06 115.39z m382.8-221c-21.58 37.35-81.14 55.4-162.1 49.73 12.12-39.07 21.7-81.59 28.2-127.05 36.11-28.35 68.15-57.91 95.92-87.94 45.4 67.28 59.55 127.89 37.98 165.26z" fill="#ffffff" p-id="5960"></path></svg>